<svg id="레이어_1" data-name="레이어 1" xmlns="http://www.w3.org/2000/svg" xmlns:xlink="http://www.w3.org/1999/xlink" viewBox="0 0 262.67 50.67"><defs><style>.cls-1{fill:none;}.cls-2{clip-path:url(#clip-path);}.cls-3{fill:#f12a37;}.cls-4{fill:#fff;}</style><clipPath id="clip-path" transform="translate(-0.67)"><rect class="cls-1" x="0.67" width="262.67" height="50.67"/></clipPath></defs><g class="cls-2"><path class="cls-3" d="M41.54,35.47H.67v15.2H41.54Z" transform="translate(-0.67)"/><path class="cls-3" d="M41.54,0H.67V10.13H41.54Z" transform="translate(-0.67)"/><path class="cls-3" d="M41.54,20.27H.67v5.07H41.54Z" transform="translate(-0.67)"/><path class="cls-4" d="M138.61,30.77,124.45,12.66h-4.23V38h2V19.89L136.44,38h4.22V12.66h-2Z" transform="translate(-0.67)"/><path class="cls-4" d="M236.71,12.66h-6.13V38h6.13Z" transform="translate(-0.67)"/><path class="cls-4" d="M253.07,35.89V12.66h-6.13V38h16.39V35.89Z" transform="translate(-0.67)"/><path class="cls-4" d="M149.86,12.66v2.11H157V38h6.13V14.77h7.15V12.66Z" transform="translate(-0.67)"/><path class="cls-4" d="M76.63,14.22a6.94,6.94,0,0,1,3.2.65,7.17,7.17,0,0,1,2.59,2.05l1.8-1.49a13,13,0,0,0-6.76-3.51,12.83,12.83,0,0,0-7.51.9,13.27,13.27,0,0,0-5.8,5,14,14,0,0,0,0,15,13.27,13.27,0,0,0,5.8,5,12.75,12.75,0,0,0,7.51.9,13,13,0,0,0,6.76-3.51L82.43,33.8a7.12,7.12,0,0,1-2.59,2,6.83,6.83,0,0,1-3.2.64c-4.45,0-8-5-8-11.11S72.18,14.22,76.63,14.22Z" transform="translate(-0.67)"/><path class="cls-4" d="M213.6,30.8,207,12.66h-6.66L209.56,38h3.65l9.2-25.34h-2.22Z" transform="translate(-0.67)"/><path class="cls-4" d="M184,12.67,174.8,38H177l2.3-6.34h8.57l2.3,6.34h6.66l-9.2-25.35Zm-3.91,16.9,3.49-9.7,3.49,9.7Z" transform="translate(-0.67)"/><path class="cls-4" d="M99.19,12.67,90,38h2.22l2.3-6.34h8.57l2.3,6.34H112l-9.2-25.35Zm-3.91,16.9,3.49-9.7,3.5,9.7Z" transform="translate(-0.67)"/></g></svg>